# xmcd
#
# Track frame offsets:
#	150
#	10451
#	23155
#	36295
#	50263
#	65052
#	78272
#	89789
#	107012
#	118385
#	132637
#	142894
#	154874
#	167719
#	178640
#	209915
#	221241
#	235747
#	249388
#	265968
#	280331
#	291684
#	303447
#	330115
#
# Disc length: 4556 seconds
#
# Revision: 0
# Processed by: cddbd v1.5.1PL2 Copyright (c) Steve Scherf et al.
# Submitted via: audiograbber 1.83.01
#
DISCID=7611ca18
DTITLE=Maria and Margot Hellwig und Gäste - Made in Germany
DYEAR=2006
DGENRE=
TTITLE0=Willkommen, Liebe Leute
TTITLE1=Musik ist unser Leben
TTITLE2=Die Liebe zu den Bergen
TTITLE3=Komm doch mit
TTITLE4=In den Bergen geh'n die Uhren anders
TTITLE5=Klarinetten-Toni
TTITLE6=Spitzensalat am Spitzingsee
TTITLE7=Wenn die Glocken hell erklingen
TTITLE8=Wer's jodeln hat erfunden
TTITLE9=Schützenliesl
TTITLE10=Golden schimmern meine Berge
TTITLE11=Der Gast ist der König von Bayern
TTITLE12=Rutsch mja doch a bisserl zamm
TTITLE13=Ein Mutterherz
TTITLE14=Die Jodlerreise
TTITLE15=O Du himmelblauer See
TTITLE16=Wir Bayern
TTITLE17=Holdrio, liebes Echo
TTITLE18=Sehnsucht nach den Bergen
TTITLE19=Der Mond ist aufgegangen
TTITLE20=Adieu, mein kleiner Gardeoffizier
TTITLE21=Kein schöner Land
TTITLE22=Der Feierabend Jodler
TTITLE23=Data Track
EXTD=
EXTT0=
EXTT1=
EXTT2=
EXTT3=
EXTT4=
EXTT5=
EXTT6=
EXTT7=
EXTT8=
EXTT9=
EXTT10=
EXTT11=
EXTT12=
EXTT13=
EXTT14=
EXTT15=
EXTT16=
EXTT17=
EXTT18=
EXTT19=
EXTT20=
EXTT21=
EXTT22=
EXTT23=
PLAYORDER=
